{
  "accessors": [
    {
      "bufferView": 2,
      "componentType": 5126,
      "count": 14128,
      "max": [
        0.98672002553939819,
        0.98549997806549072,
        0.98132002353668213
      ],
      "min": [
        -0.98672002553939819,
        -0.98549997806549072,
        -0.98132002353668213
      ],
      "type": "VEC3"
    },
    {
      "bufferView": 2,
      "byteOffset": 169536,
      "componentType": 5126,
      "count": 14128,
      "max": [
        1,
        1,
        1
      ],
      "min": [
        -1,
        -1,
        -1
      ],
      "type": "VEC3"
    },
    {
      "bufferView": 3,
      "componentType": 5126,
      "count": 14128,
      "max": [
        1,
        0.99991965293884277,
        0.76224273443222046,
        1
      ],
      "min": [
        -0.9999154806137085,
        -1,
        -0.75533801317214966,
        -1
      ],
      "type": "VEC4"
    },
    {
      "bufferView": 1,
      "componentType": 5126,
      "count": 14128,
      "max": [
        0.99757999181747437,
        0.97096997499465942
      ],
      "min": [
        0.0031699999235570431,
        0.019239999353885651
      ],
      "type": "VEC2"
    },
    {
      "bufferView": 0,
      "componentType": 5125,
      "count": 82944,
      "max": [
        14127
      ],
      "min": [
        0
      ],
      "type": "SCALAR"
    }
  ],
  "asset": {
    "extras": {
      "author": "inter_net (https://sketchfab.com/inter_net)",
      "license": "CC-BY-4.0 (http://creativecommons.org/licenses/by/4.0/)",
      "source": "https://sketchfab.com/models/f08dada8b253466daff7bfd6445c9e41",
      "title": "Basketball"
    },
    "generator": "Sketchfab-3.23.3",
    "version": "2.0"
  },
  "bufferViews": [
    {
      "buffer": 0,
      "byteLength": 331776,
      "byteOffset": 0,
      "name": "floatBufferViews",
      "target": 34963
    },
    {
      "buffer": 0,
      "byteLength": 113024,
      "byteOffset": 331776,
      "byteStride": 8,
      "name": "floatBufferViews",
      "target": 34962
    },
    {
      "buffer": 0,
      "byteLength": 339072,
      "byteOffset": 444800,
      "byteStride": 12,
      "name": "floatBufferViews",
      "target": 34962
    },
    {
      "buffer": 0,
      "byteLength": 226048,
      "byteOffset": 783872,
      "byteStride": 16,
      "name": "floatBufferViews",
      "target": 34962
    }
  ],
  "buffers": [
    {
      "byteLength": 1009920,
      "uri": "scene.bin"
    }
  ],
  "extensionsRequired": [
    "KHR_materials_pbrSpecularGlossiness"
  ],
  "extensionsUsed": [
    "KHR_materials_pbrSpecularGlossiness"
  ],
  "images": [
    {
      "uri": "textures/Ball_diffuse.png"
    },
    {
      "uri": "textures/Ball_normal.png"
    },
    {
      "uri": "textures/Ball_specularGlossiness.png"
    }
  ],
  "materials": [
    {
      "doubleSided": true,
      "extensions": {
        "KHR_materials_pbrSpecularGlossiness": {
          "diffuseFactor": [
            1,
            1,
            1,
            1
          ],
          "diffuseTexture": {
            "index": 0,
            "texCoord": 0
          },
          "glossinessFactor": 1,
          "specularFactor": [
            0.10000000000000001,
            0.10000000000000001,
            0.10000000000000001
          ],
          "specularGlossinessTexture": {
            "index": 2,
            "texCoord": 0
          }
        }
      },
      "name": "Ball",
      "normalTexture": {
        "index": 1,
        "scale": 0.70293445119999998,
        "texCoord": 0
      }
    }
  ],
  "meshes": [
    {
      "name": "Roundcube.001_0",
      "primitives": [
        {
          "attributes": {
            "NORMAL": 1,
            "POSITION": 0,
            "TANGENT": 2,
            "TEXCOORD_0": 3
          },
          "indices": 4,
          "material": 0,
          "mode": 4
        }
      ]
    }
  ],
  "nodes": [
    {
      "children": [
        1
      ],
      "name": "RootNode (gltf orientation matrix)",
      "rotation": [
        -0.70710678118654746,
        -0,
        -0,
        0.70710678118654757
      ]
    },
    {
      "children": [
        2
      ],
      "matrix": [
        0.81532144546508789,
        0,
        -0.57900857925415039,
        0,
        0,
        1,
        0,
        0,
        0.57900857925415039,
        0,
        0.81532144546508789,
        0,
        -0.00011844980326713994,
        -1.7511999885755358e-06,
        5.5617001635255292e-06,
        1
      ],
      "name": "RootNode (model correction matrix)"
    },
    {
      "children": [
        3,
        5
      ],
      "name": "Root"
    },
    {
      "children": [
        4
      ],
      "matrix": [
        1,
        0,
        0,
        0,
        0,
        1,
        0,
        0,
        0,
        0,
        1,
        0,
        1.9057099999999998,
        -0.050180000000000009,
        15.012980000000001,
        1
      ],
      "name": "Spot"
    },
    {
      "name": "Spot"
    },
    {
      "children": [
        6
      ],
      "matrix": [
        0,
        0,
        -8,
        0,
        8,
        -0,
        0,
        0,
        -0,
        -8,
        -0,
        0,
        0,
        0,
        0,
        1
      ],
      "name": "Roundcube.001"
    },
    {
      "mesh": 0,
      "name": "Roundcube.001_0"
    }
  ],
  "samplers": [
    {
      "magFilter": 9729,
      "minFilter": 9987,
      "wrapS": 10497,
      "wrapT": 10497
    }
  ],
  "scene": 0,
  "scenes": [
    {
      "name": "OSG_Scene",
      "nodes": [
        0
      ]
    }
  ],
  "textures": [
    {
      "sampler": 0,
      "source": 0
    },
    {
      "sampler": 0,
      "source": 1
    },
    {
      "sampler": 0,
      "source": 2
    }
  ]
}

